<svg xmlns="http://www.w3.org/2000/svg" width="32" height="32" viewBox="0 0 32 32" fill="none">
  <rect x="4" y="12" width="6" height="16" fill="#863bff" rx="1"/>
  <rect x="13" y="6" width="6" height="22" fill="#863bff" rx="1"/>
  <rect x="22" y="9" width="6" height="19" fill="#863bff" rx="1"/>
  <rect x="6" y="14" width="2" height="2" fill="#ede6ff"/>
  <rect x="6" y="18" width="2" height="2" fill="#ede6ff"/>
  <rect x="6" y="22" width="2" height="2" fill="#ede6ff"/>
  <rect x="15" y="8" width="2" height="2" fill="#ede6ff"/>
  <rect x="15" y="12" width="2" height="2" fill="#ede6ff"/>
  <rect x="15" y="16" width="2" height="2" fill="#ede6ff"/>
  <rect x="15" y="20" width="2" height="2" fill="#ede6ff"/>
  <rect x="15" y="24" width="2" height="2" fill="#ede6ff"/>
  <rect x="24" y="11" width="2" height="2" fill="#ede6ff"/>
  <rect x="24" y="15" width="2" height="2" fill="#ede6ff"/>
  <rect x="24" y="19" width="2" height="2" fill="#ede6ff"/>
  <rect x="24" y="23" width="2" height="2" fill="#ede6ff"/>
</svg>
